<svg width="238" height="72" viewBox="0 0 238 72" fill="none" xmlns="http://www.w3.org/2000/svg">
<rect x="0.543945" width="236.54" height="72" rx="10" fill="#222222"/>
<path d="M54.2762 37.3913C54.2265 31.8637 58.8023 29.1745 59.0115 29.0493C56.4201 25.271 52.4034 24.7548 50.9919 24.7136C47.6184 24.3586 44.3461 26.7322 42.6276 26.7322C40.8748 26.7322 38.2285 24.7479 35.3764 24.8062C31.7062 24.8628 28.2726 26.9878 26.3895 30.2875C22.5032 37.0157 25.4016 46.903 29.125 52.3414C30.9876 55.0049 33.164 57.9788 36.0127 57.8741C38.7996 57.7592 39.8407 56.0973 43.2039 56.0973C46.5362 56.0973 47.5138 57.8741 50.4191 57.8073C53.4101 57.7592 55.2933 55.1318 57.0906 52.4443C59.243 49.3915 60.1074 46.385 60.1417 46.2307C60.0714 46.2066 54.3328 44.0165 54.2762 37.3913Z" fill="white"/>
<path d="M48.7876 21.136C50.2866 19.2614 51.3122 16.7112 51.0275 14.1231C48.8579 14.2192 46.1447 15.6238 44.5823 17.4572C43.2 19.0728 41.9652 21.7208 42.2842 24.2111C44.7212 24.3929 47.2235 22.9814 48.7876 21.136Z" fill="white"/>
<path d="M81.2456 26H77.2776V15.328H81.2456C82.8989 15.328 84.2429 15.824 85.2776 16.816C86.3123 17.808 86.8296 19.0933 86.8296 20.672C86.8296 22.24 86.3123 23.52 85.2776 24.512C84.2536 25.504 82.9096 26 81.2456 26ZM81.2456 24.352C82.3656 24.352 83.2563 24 83.9176 23.296C84.5789 22.592 84.9096 21.7173 84.9096 20.672C84.9096 19.5947 84.5843 18.7093 83.9336 18.016C83.2936 17.3227 82.3976 16.976 81.2456 16.976H79.1496V24.352H81.2456ZM92.077 26.192C90.8823 26.192 89.9223 25.8027 89.197 25.024C88.4716 24.2347 88.109 23.2693 88.109 22.128C88.109 20.9867 88.4716 20.0267 89.197 19.248C89.9223 18.4693 90.8823 18.08 92.077 18.08C93.2823 18.08 94.2476 18.4693 94.973 19.248C95.6983 20.0267 96.061 20.9867 96.061 22.128C96.061 23.28 95.6983 24.2453 94.973 25.024C94.2476 25.8027 93.2823 26.192 92.077 26.192ZM92.077 24.704C92.7703 24.704 93.3143 24.4587 93.709 23.968C94.1143 23.4667 94.317 22.8533 94.317 22.128C94.317 21.4133 94.1143 20.8107 93.709 20.32C93.3143 19.8187 92.7703 19.568 92.077 19.568C91.3943 19.568 90.8503 19.8187 90.445 20.32C90.0503 20.8107 89.853 21.4133 89.853 22.128C89.853 22.8533 90.0503 23.4667 90.445 23.968C90.8503 24.4587 91.3943 24.704 92.077 24.704ZM106.257 26H104.497L102.705 20.336L100.913 26H99.1529L96.7529 18.272H98.4969L100.129 23.888L101.969 18.272H103.441L105.281 23.888L106.913 18.272H108.657L106.257 26ZM116.719 26H115.039V21.168C115.039 20.1013 114.522 19.568 113.487 19.568C113.082 19.568 112.703 19.6693 112.351 19.872C111.999 20.0747 111.717 20.32 111.503 20.608V26H109.823V18.272H111.503V19.328C111.791 18.9867 112.175 18.6933 112.655 18.448C113.135 18.2027 113.658 18.08 114.223 18.08C115.045 18.08 115.663 18.2933 116.079 18.72C116.506 19.1467 116.719 19.76 116.719 20.56V26ZM120.581 26H118.901V15.328H120.581V26ZM126.249 26.192C125.054 26.192 124.094 25.8027 123.369 25.024C122.644 24.2347 122.281 23.2693 122.281 22.128C122.281 20.9867 122.644 20.0267 123.369 19.248C124.094 18.4693 125.054 18.08 126.249 18.08C127.454 18.08 128.42 18.4693 129.145 19.248C129.87 20.0267 130.233 20.9867 130.233 22.128C130.233 23.28 129.87 24.2453 129.145 25.024C128.42 25.8027 127.454 26.192 126.249 26.192ZM126.249 24.704C126.942 24.704 127.486 24.4587 127.881 23.968C128.286 23.4667 128.489 22.8533 128.489 22.128C128.489 21.4133 128.286 20.8107 127.881 20.32C127.486 19.8187 126.942 19.568 126.249 19.568C125.566 19.568 125.022 19.8187 124.617 20.32C124.222 20.8107 124.025 21.4133 124.025 22.128C124.025 22.8533 124.222 23.4667 124.617 23.968C125.022 24.4587 125.566 24.704 126.249 24.704ZM138.333 26H136.653V25.168C136.055 25.8507 135.223 26.192 134.157 26.192C133.453 26.192 132.829 25.968 132.285 25.52C131.741 25.0613 131.469 24.432 131.469 23.632C131.469 22.8107 131.735 22.1867 132.269 21.76C132.813 21.3333 133.442 21.12 134.157 21.12C135.255 21.12 136.087 21.4507 136.653 22.112V20.96C136.653 20.512 136.487 20.16 136.157 19.904C135.826 19.648 135.389 19.52 134.845 19.52C133.981 19.52 133.218 19.8453 132.557 20.496L131.869 19.328C132.743 18.496 133.826 18.08 135.117 18.08C136.066 18.08 136.839 18.304 137.437 18.752C138.034 19.2 138.333 19.9093 138.333 20.88V26ZM134.813 25.04C135.655 25.04 136.269 24.7733 136.653 24.24V23.072C136.269 22.5387 135.655 22.272 134.813 22.272C134.333 22.272 133.938 22.4 133.629 22.656C133.319 22.912 133.165 23.248 133.165 23.664C133.165 24.08 133.319 24.416 133.629 24.672C133.938 24.9173 134.333 25.04 134.813 25.04ZM147.631 26H145.951V24.944C145.311 25.776 144.484 26.192 143.471 26.192C142.458 26.192 141.631 25.8293 140.991 25.104C140.351 24.3787 140.031 23.392 140.031 22.144C140.031 20.9067 140.351 19.92 140.991 19.184C141.631 18.448 142.458 18.08 143.471 18.08C144.484 18.08 145.311 18.5013 145.951 19.344V15.328H147.631V26ZM143.951 24.704C144.346 24.704 144.73 24.608 145.103 24.416C145.476 24.224 145.759 23.9787 145.951 23.68V20.608C145.759 20.3093 145.476 20.064 145.103 19.872C144.73 19.6693 144.346 19.568 143.951 19.568C143.29 19.568 142.762 19.808 142.367 20.288C141.972 20.768 141.775 21.3867 141.775 22.144C141.775 22.9013 141.972 23.52 142.367 24C142.762 24.4693 143.29 24.704 143.951 24.704ZM157.405 26.192C156.21 26.192 155.25 25.8027 154.525 25.024C153.8 24.2347 153.437 23.2693 153.437 22.128C153.437 20.9867 153.8 20.0267 154.525 19.248C155.25 18.4693 156.21 18.08 157.405 18.08C158.61 18.08 159.576 18.4693 160.301 19.248C161.026 20.0267 161.389 20.9867 161.389 22.128C161.389 23.28 161.026 24.2453 160.301 25.024C159.576 25.8027 158.61 26.192 157.405 26.192ZM157.405 24.704C158.098 24.704 158.642 24.4587 159.037 23.968C159.442 23.4667 159.645 22.8533 159.645 22.128C159.645 21.4133 159.442 20.8107 159.037 20.32C158.642 19.8187 158.098 19.568 157.405 19.568C156.722 19.568 156.178 19.8187 155.773 20.32C155.378 20.8107 155.181 21.4133 155.181 22.128C155.181 22.8533 155.378 23.4667 155.773 23.968C156.178 24.4587 156.722 24.704 157.405 24.704ZM169.985 26H168.305V21.168C168.305 20.1013 167.788 19.568 166.753 19.568C166.348 19.568 165.969 19.6693 165.617 19.872C165.265 20.0747 164.982 20.32 164.769 20.608V26H163.089V18.272H164.769V19.328C165.057 18.9867 165.441 18.6933 165.921 18.448C166.401 18.2027 166.924 18.08 167.489 18.08C168.31 18.08 168.929 18.2933 169.345 18.72C169.772 19.1467 169.985 19.76 169.985 20.56V26ZM178.596 26.192C177.946 26.192 177.45 26.0213 177.108 25.68C176.778 25.3387 176.612 24.848 176.612 24.208V19.744H175.332V18.272H176.612V16.16H178.292V18.272H179.86V19.744H178.292V23.792C178.292 24.0693 178.356 24.2933 178.484 24.464C178.612 24.624 178.794 24.704 179.028 24.704C179.37 24.704 179.62 24.6133 179.78 24.432L180.18 25.696C179.828 26.0267 179.3 26.192 178.596 26.192ZM188.298 26H186.618V21.136C186.618 20.5707 186.479 20.1707 186.202 19.936C185.935 19.6907 185.551 19.568 185.05 19.568C184.655 19.568 184.282 19.6693 183.93 19.872C183.578 20.0747 183.29 20.32 183.066 20.608V26H181.386V15.328H183.066V19.328C183.354 18.9867 183.738 18.6933 184.218 18.448C184.709 18.2027 185.237 18.08 185.802 18.08C187.466 18.08 188.298 18.896 188.298 20.528V26ZM194.048 26.192C192.874 26.192 191.904 25.8187 191.136 25.072C190.378 24.3147 190 23.3333 190 22.128C190 20.9973 190.368 20.0427 191.104 19.264C191.85 18.4747 192.789 18.08 193.92 18.08C195.061 18.08 195.978 18.4747 196.672 19.264C197.376 20.0533 197.728 21.0613 197.728 22.288V22.688H191.76C191.824 23.296 192.074 23.8027 192.512 24.208C192.949 24.6133 193.52 24.816 194.224 24.816C194.618 24.816 195.013 24.7413 195.408 24.592C195.813 24.4427 196.149 24.2347 196.416 23.968L197.184 25.072C196.405 25.8187 195.36 26.192 194.048 26.192ZM196.096 21.504C196.074 20.9707 195.877 20.496 195.504 20.08C195.141 19.664 194.613 19.456 193.92 19.456C193.258 19.456 192.741 19.664 192.368 20.08C191.994 20.4853 191.786 20.96 191.744 21.504H196.096Z" fill="white"/>
<path d="M92.6536 53L86.4856 36.992H82.2136L76.0216 53H79.9096L80.9176 50.288H87.7816L88.7656 53H92.6536ZM86.8456 47.288H81.8536L84.3496 40.4L86.8456 47.288ZM100.684 53.288C103.66 53.288 105.82 51.056 105.82 47.192C105.82 43.328 103.66 41.12 100.684 41.12C99.2679 41.12 97.9959 41.744 97.1079 42.872V41.408H94.0599V57.416H97.1079V51.512C98.0439 52.712 99.3159 53.288 100.684 53.288ZM99.7239 50.576C98.7399 50.576 97.6119 49.976 97.1079 49.256V45.152C97.6119 44.408 98.7399 43.832 99.7239 43.832C101.476 43.832 102.652 45.2 102.652 47.192C102.652 49.208 101.476 50.576 99.7239 50.576ZM114.676 53.288C117.652 53.288 119.812 51.056 119.812 47.192C119.812 43.328 117.652 41.12 114.676 41.12C113.26 41.12 111.988 41.744 111.1 42.872V41.408H108.052V57.416H111.1V51.512C112.036 52.712 113.308 53.288 114.676 53.288ZM113.716 50.576C112.732 50.576 111.604 49.976 111.1 49.256V45.152C111.604 44.408 112.732 43.832 113.716 43.832C115.468 43.832 116.644 45.2 116.644 47.192C116.644 49.208 115.468 50.576 113.716 50.576ZM133.945 53.288C138.265 53.288 140.353 51.08 140.353 48.152C140.353 42.176 131.161 43.88 131.161 41.336C131.161 40.376 131.977 39.728 133.441 39.728C135.073 39.728 136.801 40.28 138.097 41.48L139.993 38.984C138.409 37.52 136.297 36.752 133.753 36.752C129.985 36.752 127.681 38.96 127.681 41.624C127.681 47.648 136.897 45.704 136.897 48.536C136.897 49.448 135.985 50.312 134.113 50.312C131.905 50.312 130.153 49.328 129.025 48.152L127.177 50.744C128.665 52.256 130.873 53.288 133.945 53.288ZM146.135 53.288C147.407 53.288 148.223 52.952 148.679 52.544L148.031 50.24C147.863 50.408 147.431 50.576 146.975 50.576C146.303 50.576 145.919 50.024 145.919 49.304V44.072H148.271V41.408H145.919V38.24H142.847V41.408H140.927V44.072H142.847V50.12C142.847 52.184 143.999 53.288 146.135 53.288ZM155.733 53.288C159.573 53.288 161.877 50.504 161.877 47.192C161.877 43.904 159.573 41.12 155.733 41.12C151.917 41.12 149.613 43.904 149.613 47.192C149.613 50.504 151.917 53.288 155.733 53.288ZM155.733 50.576C153.837 50.576 152.781 49.016 152.781 47.192C152.781 45.392 153.837 43.832 155.733 43.832C157.629 43.832 158.709 45.392 158.709 47.192C158.709 49.016 157.629 50.576 155.733 50.576ZM167.186 53V45.344C167.69 44.6 169.034 44.024 170.042 44.024C170.378 44.024 170.666 44.048 170.882 44.096V41.12C169.442 41.12 168.002 41.96 167.186 42.992V41.408H164.138V53H167.186ZM178.234 53.288C180.034 53.288 181.858 52.736 183.01 51.68L181.666 49.712C180.922 50.432 179.554 50.864 178.57 50.864C176.602 50.864 175.426 49.64 175.234 48.176H183.85V47.504C183.85 43.712 181.498 41.12 178.042 41.12C174.514 41.12 172.042 43.832 172.042 47.192C172.042 50.912 174.706 53.288 178.234 53.288ZM180.898 46.112H175.186C175.33 44.96 176.146 43.544 178.042 43.544C180.058 43.544 180.826 45.008 180.898 46.112Z" fill="white"/>
</svg>
