<svg width="79" height="47" viewBox="0 0 79 47" fill="none" xmlns="http://www.w3.org/2000/svg">
<path fill-rule="evenodd" clip-rule="evenodd" d="M26.8667 1.7C26.8667 0.761117 27.6278 0 28.5667 0C29.5056 0 30.2667 0.761116 30.2667 1.7V44.7667C30.2667 45.7056 29.5056 46.4667 28.5667 46.4667C27.6278 46.4667 26.8667 45.7056 26.8667 44.7667V1.7ZM18.9333 9.63335C18.9333 8.69447 19.6945 7.93335 20.6333 7.93335C21.5722 7.93335 22.3333 8.69447 22.3333 9.63335V36.8333C22.3333 37.7722 21.5722 38.5333 20.6333 38.5333C19.6945 38.5333 18.9333 37.7722 18.9333 36.8334V9.63335ZM11 16.4333C11 15.4945 11.7611 14.7333 12.7 14.7333C13.6389 14.7333 14.4 15.4945 14.4 16.4333V30.0333C14.4 30.9722 13.6389 31.7333 12.7 31.7333C11.7611 31.7333 11 30.9722 11 30.0333V16.4333ZM44.4334 7.93335C43.4945 7.93335 42.7334 8.69447 42.7334 9.63335V36.8334C42.7334 37.7722 43.4945 38.5333 44.4334 38.5333C45.3723 38.5333 46.1334 37.7722 46.1334 36.8333V9.63335C46.1334 8.69447 45.3723 7.93335 44.4334 7.93335ZM36.5 18.1333C35.5612 18.1333 34.8 18.8944 34.8 19.8333V28.9C34.8 29.8389 35.5612 30.6 36.5 30.6C37.4389 30.6 38.2 29.8389 38.2 28.9V19.8333C38.2 18.8944 37.4389 18.1333 36.5 18.1333ZM50.6667 7.36669C50.6667 6.4278 51.4279 5.66669 52.3667 5.66669C53.3056 5.66669 54.0667 6.4278 54.0667 7.36669V41.3667C54.0667 42.3056 53.3056 43.0667 52.3667 43.0667C51.4279 43.0667 50.6667 42.3056 50.6667 41.3667V7.36669ZM60.3001 14.7333C59.3612 14.7333 58.6001 15.4945 58.6001 16.4333V30.0333C58.6001 30.9722 59.3612 31.7333 60.3001 31.7333C61.239 31.7333 62.0001 30.9722 62.0001 30.0333V16.4333C62.0001 15.4945 61.239 14.7333 60.3001 14.7333Z" fill="url(#paint0_linear)"/>
<path d="M6.06641 14.6708L10.9883 27.749L15.8984 14.6708H19.7305V31.7333H16.7773V26.1083L17.0703 18.5849L12.0312 31.7333H9.91016L4.88281 18.5966L5.17578 26.1083V31.7333H2.22266V14.6708H6.06641ZM28.5547 31.9677C26.75 31.9677 25.2852 31.4013 24.1602 30.2685C23.043 29.1279 22.4844 27.6122 22.4844 25.7216V25.3701C22.4844 24.1044 22.7266 22.9755 23.2109 21.9833C23.7031 20.9833 24.3906 20.206 25.2734 19.6513C26.1562 19.0966 27.1406 18.8193 28.2266 18.8193C29.9531 18.8193 31.2852 19.3701 32.2227 20.4716C33.168 21.5732 33.6406 23.1318 33.6406 25.1474V26.2958H25.3555C25.4414 27.3427 25.7891 28.1708 26.3984 28.7802C27.0156 29.3896 27.7891 29.6943 28.7188 29.6943C30.0234 29.6943 31.0859 29.1669 31.9062 28.1122L33.4414 29.5771C32.9336 30.3349 32.2539 30.9247 31.4023 31.3466C30.5586 31.7607 29.6094 31.9677 28.5547 31.9677ZM28.2148 21.1044C27.4336 21.1044 26.8008 21.3779 26.3164 21.9247C25.8398 22.4716 25.5352 23.2333 25.4023 24.2099H30.8281V23.999C30.7656 23.0458 30.5117 22.3271 30.0664 21.8427C29.6211 21.3505 29.0039 21.1044 28.2148 21.1044ZM35.3281 25.2997C35.3281 23.3466 35.7812 21.7802 36.6875 20.6005C37.5938 19.413 38.8086 18.8193 40.332 18.8193C41.6758 18.8193 42.7617 19.288 43.5898 20.2255V13.7333H46.4375V31.7333H43.8594L43.7188 30.4208C42.8672 31.4521 41.7305 31.9677 40.3086 31.9677C38.8242 31.9677 37.6211 31.3701 36.6992 30.1747C35.7852 28.9794 35.3281 27.3544 35.3281 25.2997ZM38.1758 25.5458C38.1758 26.8349 38.4219 27.8427 38.9141 28.5693C39.4141 29.288 40.1211 29.6474 41.0352 29.6474C42.1992 29.6474 43.0508 29.1279 43.5898 28.0888V22.6747C43.0664 21.6591 42.2227 21.1513 41.0586 21.1513C40.1367 21.1513 39.4258 21.5185 38.9258 22.2529C38.4258 22.9794 38.1758 24.0771 38.1758 25.5458ZM52.4375 31.7333H49.5898V13.7333H52.4375V31.7333ZM61.1328 31.9677C59.3281 31.9677 57.8633 31.4013 56.7383 30.2685C55.6211 29.1279 55.0625 27.6122 55.0625 25.7216V25.3701C55.0625 24.1044 55.3047 22.9755 55.7891 21.9833C56.2812 20.9833 56.9688 20.206 57.8516 19.6513C58.7344 19.0966 59.7188 18.8193 60.8047 18.8193C62.5312 18.8193 63.8633 19.3701 64.8008 20.4716C65.7461 21.5732 66.2188 23.1318 66.2188 25.1474V26.2958H57.9336C58.0195 27.3427 58.3672 28.1708 58.9766 28.7802C59.5938 29.3896 60.3672 29.6943 61.2969 29.6943C62.6016 29.6943 63.6641 29.1669 64.4844 28.1122L66.0195 29.5771C65.5117 30.3349 64.832 30.9247 63.9805 31.3466C63.1367 31.7607 62.1875 31.9677 61.1328 31.9677ZM60.793 21.1044C60.0117 21.1044 59.3789 21.3779 58.8945 21.9247C58.418 22.4716 58.1133 23.2333 57.9805 24.2099H63.4062V23.999C63.3438 23.0458 63.0898 22.3271 62.6445 21.8427C62.1992 21.3505 61.582 21.1044 60.793 21.1044ZM72.7109 27.6552L75.2891 19.0536H78.3242L73.2852 33.6552C72.5117 35.788 71.1992 36.8544 69.3477 36.8544C68.9336 36.8544 68.4766 36.7841 67.9766 36.6435V34.4404L68.5156 34.4755C69.2344 34.4755 69.7734 34.3427 70.1328 34.0771C70.5 33.8193 70.7891 33.3818 71 32.7646L71.4102 31.6747L66.957 19.0536H70.0273L72.7109 27.6552Z" fill="black"/>
<defs>
<linearGradient id="paint0_linear" x1="60.3001" y1="14.7333" x2="60.3001" y2="31.7333" gradientUnits="userSpaceOnUse">
<stop stop-color="#FF9C00"/>
<stop offset="1" stop-color="#FFE000"/>
</linearGradient>
</defs>
</svg>
