<svg width="237" height="72" viewBox="0 0 237 72" fill="none" xmlns="http://www.w3.org/2000/svg">
<rect width="236.544" height="72" rx="10" fill="#222222"/>
<path d="M24.8462 13.572C24.2595 14.276 23.9634 15.1772 24.0182 16.092V55.908C23.9634 56.8228 24.2595 57.724 24.8462 58.428L24.9722 58.554L47.2742 36.27V35.748L24.9722 13.446L24.8462 13.572Z" fill="url(#paint0_linear)"/>
<path d="M54.6544 43.704L47.2744 36.27V35.748L54.6544 28.296L54.8164 28.386L63.6544 33.408C66.1744 34.83 66.1744 37.17 63.6544 38.61L54.8524 43.614L54.6544 43.704Z" fill="url(#paint1_linear)"/>
<path d="M54.8697 43.596L47.2737 36L24.8457 58.428C25.3594 58.8795 26.0146 59.1374 26.6982 59.1572C27.3818 59.1769 28.0509 58.9572 28.5897 58.536L54.8877 43.596" fill="url(#paint2_linear)"/>
<path d="M54.8701 28.404L28.5721 13.464C28.0333 13.0428 27.3643 12.8231 26.6807 12.8428C25.997 12.8626 25.3418 13.1205 24.8281 13.572L47.2741 36L54.8701 28.404Z" fill="url(#paint3_linear)"/>
<path opacity="0.2" d="M54.6537 43.434L28.5717 58.284C28.052 58.6726 27.4206 58.8825 26.7717 58.8825C26.1228 58.8825 25.4914 58.6726 24.9717 58.284L24.8457 58.41L24.9717 58.536C25.4902 58.9273 26.1221 59.139 26.7717 59.139C27.4213 59.139 28.0532 58.9273 28.5717 58.536L54.8697 43.596L54.6537 43.434Z" fill="white"/>
<path opacity="0.12" d="M24.8462 58.176C24.2595 57.472 23.9634 56.5708 24.0182 55.656V55.926C23.9634 56.8408 24.2595 57.742 24.8462 58.446L24.9722 58.32L24.8462 58.176ZM63.6542 38.34L54.6542 43.434L54.8162 43.596L63.6542 38.592C64.1556 38.3564 64.5861 37.9927 64.9021 37.5377C65.2182 37.0826 65.4086 36.5522 65.4542 36C65.3529 36.5017 65.1381 36.9735 64.826 37.3791C64.514 37.7848 64.1131 38.1135 63.6542 38.34Z" fill="white"/>
<path opacity="0.25" d="M28.572 13.7153L63.654 33.6593C64.1129 33.8858 64.5138 34.2145 64.8258 34.6202C65.1379 35.0258 65.3528 35.4976 65.454 35.9993C65.4084 35.4471 65.218 34.9167 64.902 34.4616C64.5859 34.0066 64.1555 33.6429 63.654 33.4073L28.572 13.4633C26.052 12.0413 24 13.2293 24 16.1093V16.3793C24.054 13.4813 26.07 12.2933 28.572 13.7153V13.7153Z" fill="black"/>
<path d="M87.7999 26.208C86.2213 26.208 84.8933 25.696 83.8159 24.672C82.7386 23.648 82.1999 22.3147 82.1999 20.672C82.1999 19.0293 82.7386 17.7013 83.8159 16.688C84.8933 15.664 86.2213 15.152 87.7999 15.152C89.6346 15.152 91.0693 15.8933 92.1039 17.376L90.5679 18.24C90.2693 17.824 89.8746 17.4827 89.3839 17.216C88.9039 16.9493 88.3759 16.816 87.7999 16.816C86.7439 16.816 85.8639 17.1787 85.1599 17.904C84.4666 18.6293 84.1199 19.552 84.1199 20.672C84.1199 21.792 84.4666 22.72 85.1599 23.456C85.8639 24.1813 86.7439 24.544 87.7999 24.544C88.3013 24.544 88.7759 24.448 89.2239 24.256C89.6826 24.064 90.0506 23.84 90.3279 23.584V21.92H87.1439V20.272H92.1999V24.272C91.0373 25.5627 89.5706 26.208 87.7999 26.208ZM101.461 26H94.1487V15.328H101.461V16.976H96.0207V19.744H101.349V21.392H96.0207V24.352H101.461V26ZM107.799 26H105.927V16.976H102.695V15.328H111.031V16.976H107.799V26ZM118.599 26H116.727V15.328H118.599V26ZM125.283 26H123.411V16.976H120.179V15.328H128.515V16.976H125.283V26ZM143.107 24.64C142.083 25.6747 140.777 26.192 139.187 26.192C137.598 26.192 136.291 25.6747 135.267 24.64C134.243 23.5947 133.731 22.272 133.731 20.672C133.731 19.072 134.243 17.7547 135.267 16.72C136.291 15.6747 137.598 15.152 139.187 15.152C140.777 15.152 142.083 15.6747 143.107 16.72C144.131 17.7547 144.643 19.072 144.643 20.672C144.643 22.272 144.131 23.5947 143.107 24.64ZM139.187 24.528C140.243 24.528 141.097 24.1653 141.747 23.44C142.398 22.704 142.723 21.7813 142.723 20.672C142.723 19.552 142.398 18.6293 141.747 17.904C141.097 17.1787 140.243 16.816 139.187 16.816C138.121 16.816 137.262 17.1787 136.611 17.904C135.971 18.6293 135.651 19.552 135.651 20.672C135.651 21.792 135.971 22.7147 136.611 23.44C137.262 24.1653 138.121 24.528 139.187 24.528ZM155.694 26H153.886L148.318 18.384V26H146.446V15.328H148.366L153.822 22.736V15.328H155.694V26Z" fill="white"/>
<path d="M90.8799 53.312C93.7839 53.312 96.0639 52.112 97.6959 50.288V44.144H90.0639V47.12H94.2879V49.04C93.6399 49.64 92.2959 50.264 90.8799 50.264C87.9759 50.264 85.8639 48.032 85.8639 45.008C85.8639 41.984 87.9759 39.752 90.8799 39.752C92.5839 39.752 93.9519 40.712 94.6719 41.84L97.5039 40.304C96.3039 38.408 94.2159 36.728 90.8799 36.728C86.1999 36.728 82.3599 39.944 82.3599 45.008C82.3599 50.048 86.1999 53.312 90.8799 53.312ZM105.705 53.288C109.545 53.288 111.849 50.504 111.849 47.192C111.849 43.904 109.545 41.12 105.705 41.12C101.889 41.12 99.5854 43.904 99.5854 47.192C99.5854 50.504 101.889 53.288 105.705 53.288ZM105.705 50.576C103.809 50.576 102.753 49.016 102.753 47.192C102.753 45.392 103.809 43.832 105.705 43.832C107.601 43.832 108.681 45.392 108.681 47.192C108.681 49.016 107.601 50.576 105.705 50.576ZM119.487 53.288C123.327 53.288 125.631 50.504 125.631 47.192C125.631 43.904 123.327 41.12 119.487 41.12C115.671 41.12 113.367 43.904 113.367 47.192C113.367 50.504 115.671 53.288 119.487 53.288ZM119.487 50.576C117.591 50.576 116.535 49.016 116.535 47.192C116.535 45.392 117.591 43.832 119.487 43.832C121.383 43.832 122.463 45.392 122.463 47.192C122.463 49.016 121.383 50.576 119.487 50.576ZM132.644 57.704C135.5 57.704 138.908 56.624 138.908 52.208V41.408H135.836V42.896C134.9 41.72 133.652 41.12 132.26 41.12C129.332 41.12 127.148 43.232 127.148 47.024C127.148 50.888 129.356 52.928 132.26 52.928C133.676 52.928 134.924 52.256 135.836 51.104V52.28C135.836 54.56 134.108 55.208 132.644 55.208C131.18 55.208 129.956 54.8 129.02 53.768L127.652 55.976C129.116 57.248 130.652 57.704 132.644 57.704ZM133.22 50.216C131.492 50.216 130.292 49.016 130.292 47.024C130.292 45.032 131.492 43.832 133.22 43.832C134.228 43.832 135.332 44.384 135.836 45.152V48.896C135.332 49.64 134.228 50.216 133.22 50.216ZM144.979 53V36.992H141.931V53H144.979ZM153.449 53.288C155.249 53.288 157.073 52.736 158.225 51.68L156.881 49.712C156.137 50.432 154.769 50.864 153.785 50.864C151.817 50.864 150.641 49.64 150.449 48.176H159.065V47.504C159.065 43.712 156.713 41.12 153.257 41.12C149.729 41.12 147.257 43.832 147.257 47.192C147.257 50.912 149.921 53.288 153.449 53.288ZM156.113 46.112H150.401C150.545 44.96 151.361 43.544 153.257 43.544C155.273 43.544 156.041 45.008 156.113 46.112ZM170.888 53V47.312H174.968C178.424 47.312 180.344 44.936 180.344 42.152C180.344 39.344 178.448 36.992 174.968 36.992H167.48V53H170.888ZM174.512 44.312H170.888V39.992H174.512C175.856 39.992 176.864 40.808 176.864 42.152C176.864 43.472 175.856 44.312 174.512 44.312ZM185.432 53V36.992H182.384V53H185.432ZM198.462 53V45.512C198.462 42.176 196.038 41.12 193.398 41.12C191.574 41.12 189.75 41.696 188.334 42.944L189.486 44.984C190.47 44.072 191.622 43.616 192.87 43.616C194.406 43.616 195.414 44.384 195.414 45.56V47.12C194.646 46.208 193.278 45.704 191.742 45.704C189.894 45.704 187.71 46.736 187.71 49.448C187.71 52.04 189.894 53.288 191.742 53.288C193.254 53.288 194.622 52.736 195.414 51.8V53H198.462ZM192.966 51.224C191.766 51.224 190.782 50.6 190.782 49.52C190.782 48.392 191.766 47.768 192.966 47.768C193.95 47.768 194.91 48.104 195.414 48.776V50.216C194.91 50.888 193.95 51.224 192.966 51.224ZM201.078 57.536C201.462 57.632 202.23 57.704 202.59 57.704C204.582 57.656 206.118 57.08 206.982 54.896L212.43 41.408H209.142L206.118 49.472L203.094 41.408H199.83L204.534 53.168L204.102 54.152C203.814 54.776 203.286 54.992 202.494 54.992C202.206 54.992 201.798 54.92 201.534 54.8L201.078 57.536Z" fill="white"/>
<defs>
<linearGradient id="paint0_linear" x1="45.2942" y1="15.678" x2="15.0902" y2="45.882" gradientUnits="userSpaceOnUse">
<stop stop-color="#00A0FF"/>
<stop offset="0.01" stop-color="#00A1FF"/>
<stop offset="0.26" stop-color="#00BEFF"/>
<stop offset="0.51" stop-color="#00D2FF"/>
<stop offset="0.76" stop-color="#00DFFF"/>
<stop offset="1" stop-color="#00E3FF"/>
</linearGradient>
<linearGradient id="paint1_linear" x1="66.9484" y1="36" x2="23.4064" y2="36" gradientUnits="userSpaceOnUse">
<stop stop-color="#FFE000"/>
<stop offset="0.41" stop-color="#FFBD00"/>
<stop offset="0.78" stop-color="#FFA500"/>
<stop offset="1" stop-color="#FF9C00"/>
</linearGradient>
<linearGradient id="paint2_linear" x1="50.7477" y1="40.14" x2="9.7797" y2="81.09" gradientUnits="userSpaceOnUse">
<stop stop-color="#FF3A44"/>
<stop offset="1" stop-color="#C31162"/>
</linearGradient>
<linearGradient id="paint3_linear" x1="19.1941" y1="0.324003" x2="37.4821" y2="18.612" gradientUnits="userSpaceOnUse">
<stop stop-color="#32A071"/>
<stop offset="0.07" stop-color="#2DA771"/>
<stop offset="0.48" stop-color="#15CF74"/>
<stop offset="0.8" stop-color="#06E775"/>
<stop offset="1" stop-color="#00F076"/>
</linearGradient>
</defs>
</svg>
